<?xml version="1.0" standalone="no"?>
<!DOCTYPE svg PUBLIC "-//W3C//DTD SVG 20010904//EN"
 "http://www.w3.org/TR/2001/REC-SVG-20010904/DTD/svg10.dtd">
<svg version="1.0" xmlns="http://www.w3.org/2000/svg"
 width="200.000000pt" height="200.000000pt" viewBox="0 0 200.000000 200.000000"
 preserveAspectRatio="xMidYMid meet">

<g transform="translate(0.000000,200.000000) scale(0.100000,-0.100000)"
fill="#000000" stroke="none">
<path d="M617 1530 c-43 -13 -274 -158 -296 -186 -11 -14 -31 -57 -46 -97 -42
-116 -111 -245 -180 -342 -65 -90 -77 -127 -43 -133 24 -5 125 136 212 293 97
176 113 192 248 253 62 28 124 54 138 57 38 9 212 -80 275 -141 75 -72 49 -71
-92 5 -31 17 -60 23 -103 23 -239 0 -309 -284 -117 -474 54 -53 68 -61 192
-108 87 -34 133 -66 152 -105 9 -19 14 -38 10 -41 -4 -4 -44 8 -89 26 -89 35
-194 48 -388 49 -56 1 -120 8 -155 17 -85 24 -110 24 -110 -1 0 -13 12 -26 34
-37 l33 -16 -36 -24 c-42 -27 -52 -46 -32 -66 12 -12 23 -8 82 28 l69 42 192
-6 192 -6 103 -38 c125 -47 158 -47 286 3 90 35 94 35 284 41 l193 6 69 -42
c59 -36 70 -40 82 -28 20 20 10 39 -32 66 l-36 24 33 16 c22 11 34 24 34 37 0
25 -25 25 -110 1 -35 -9 -99 -16 -155 -17 -192 -1 -299 -14 -383 -48 -92 -36
-97 -37 -97 -12 0 46 77 103 190 141 91 31 113 43 171 102 116 116 140 275 59
386 -59 81 -191 110 -281 62 -96 -51 -119 -62 -131 -58 -26 9 88 100 186 150
116 58 109 59 280 -21 121 -57 134 -71 231 -246 87 -158 189 -298 213 -293 33
6 22 43 -39 128 -81 113 -126 195 -171 314 -48 128 -56 139 -136 190 -242 154
-245 155 -405 78 -95 -45 -110 -56 -137 -99 -17 -26 -36 -65 -42 -85 -6 -21
-14 -38 -18 -38 -4 0 -12 17 -18 38 -6 20 -25 59 -42 85 -27 43 -42 54 -133
97 -113 53 -148 63 -190 50z m167 -104 c71 -33 105 -58 106 -79 0 -4 -46 16
-102 44 -120 60 -124 60 -269 -4 -54 -25 -99 -44 -99 -42 0 6 149 96 190 114
49 22 61 20 174 -33z m698 -19 c48 -28 86 -52 84 -54 -1 -2 -37 12 -78 32 -41
19 -96 40 -122 47 -46 12 -47 12 -151 -40 -58 -28 -105 -49 -105 -44 2 27 63
65 174 107 71 27 73 26 198 -48z m-624 -249 c64 -33 81 -38 142 -38 62 0 78 4
147 41 135 71 230 49 278 -64 19 -46 19 -80 -1 -147 -21 -72 -119 -172 -185
-190 -70 -19 -161 -64 -202 -99 l-37 -33 -37 33 c-41 35 -132 80 -202 99 -33
9 -61 28 -106 73 -93 94 -118 188 -72 277 25 50 60 79 108 90 49 10 84 2 167
-42z"/>
</g>
</svg>
