<?xml version="1.0" standalone="no"?>
<!DOCTYPE svg PUBLIC "-//W3C//DTD SVG 20010904//EN"
 "http://www.w3.org/TR/2001/REC-SVG-20010904/DTD/svg10.dtd">
<svg version="1.0" xmlns="http://www.w3.org/2000/svg"
 width="132.000000pt" height="143.000000pt" viewBox="0 0 132.000000 143.000000"
 preserveAspectRatio="xMidYMid meet">

<g transform="translate(0.000000,143.000000) scale(0.100000,-0.100000)"
fill="#000000" stroke="none">
<path d="M740 1345 c0 -8 5 -15 10 -15 6 0 10 7 10 15 0 8 -4 15 -10 15 -5 0
-10 -7 -10 -15z"/>
<path d="M695 1311 c-3 -5 -1 -12 5 -16 12 -7 30 2 30 16 0 12 -27 12 -35 0z"/>
<path d="M775 1311 c-7 -12 12 -24 25 -16 11 7 4 25 -10 25 -5 0 -11 -4 -15
-9z"/>
<path d="M740 1265 c0 -8 5 -15 10 -15 6 0 10 7 10 15 0 8 -4 15 -10 15 -5 0
-10 -7 -10 -15z"/>
<path d="M952 1243 c2 -5 10 -20 17 -35 12 -24 12 -31 -3 -53 -23 -34 -15 -41
19 -19 26 17 29 17 58 1 16 -10 31 -16 34 -14 2 3 -4 18 -14 34 -16 29 -16 32
1 58 22 34 15 42 -18 20 -23 -15 -28 -16 -57 -1 -36 18 -42 19 -37 9z m78 -58
c0 -8 -7 -15 -15 -15 -8 0 -15 7 -15 15 0 8 7 15 15 15 8 0 15 -7 15 -15z"/>
<path d="M820 1092 c0 -23 -40 -62 -63 -62 -9 0 -17 -7 -17 -15 0 -8 9 -15 19
-15 21 0 61 -44 61 -66 0 -8 5 -14 10 -14 6 0 10 8 10 18 0 25 36 62 60 62 11
0 20 7 20 15 0 8 -9 15 -20 15 -24 0 -60 37 -60 62 0 10 -4 18 -10 18 -5 0
-10 -8 -10 -18z m33 -60 c15 -17 15 -19 -4 -36 -20 -17 -22 -17 -40 0 -18 16
-18 18 -3 36 21 22 27 23 47 0z"/>
<path d="M546 805 c-26 -30 -44 -60 -40 -66 4 -7 24 9 51 40 24 28 51 51 59
51 23 0 28 -45 7 -77 l-18 -28 25 16 c35 23 40 81 8 103 -12 9 -28 16 -34 16
-6 0 -33 -25 -58 -55z"/>
<path d="M615 706 c-71 -52 -131 -90 -133 -85 -2 4 1 23 6 41 12 45 1 80 -30
97 -36 21 -45 11 -114 -125 -69 -137 -80 -201 -46 -276 25 -58 87 -127 129
-145 41 -17 125 -17 166 0 31 13 198 143 265 205 35 33 42 71 17 92 -13 11
-11 15 10 32 27 21 34 65 14 85 -9 9 -9 19 1 42 10 26 10 35 -4 56 -11 16 -26
25 -43 25 -15 0 -36 11 -49 25 -13 14 -31 25 -41 25 -10 0 -76 -43 -148 -94z
m173 39 c-2 -18 -28 -44 -92 -92 -49 -38 -91 -74 -94 -82 -8 -24 20 -7 132 79
79 61 111 80 126 75 12 -4 20 -15 20 -28 -1 -16 -31 -45 -110 -106 -61 -46
-110 -88 -110 -93 0 -19 30 -3 105 58 82 66 120 78 120 39 0 -12 -34 -48 -95
-98 -52 -44 -96 -84 -98 -88 -9 -22 25 -5 80 41 61 51 90 59 96 28 3 -18 -137
-143 -235 -210 -123 -83 -233 -52 -305 86 -39 74 -31 133 35 263 31 61 61 114
67 118 6 4 18 1 26 -6 17 -14 15 -43 -7 -116 -22 -73 -32 -78 251 124 57 40
93 44 88 8z"/>
<path d="M920 651 c0 -6 21 -11 48 -13 43 -3 47 -5 50 -30 3 -21 -1 -28 -15
-29 -10 -1 -29 -2 -42 -2 -13 -1 -26 -8 -28 -14 -4 -10 12 -13 55 -13 68 0 91
-15 72 -49 -9 -18 -20 -21 -80 -21 -40 0 -70 -4 -70 -10 0 -5 20 -10 44 -10
30 0 46 -5 50 -15 12 -32 -5 -42 -74 -49 -75 -8 -101 -23 -48 -28 25 -2 33 -8
33 -23 0 -17 -9 -21 -70 -28 -101 -13 -111 -21 -26 -25 85 -3 121 13 121 53 0
19 5 25 23 25 37 0 67 27 67 61 0 18 5 29 14 29 43 0 60 66 26 100 -11 11 -20
31 -20 43 0 37 -30 57 -83 57 -26 0 -47 -4 -47 -9z"/>
</g>
</svg>
