<?xml version="1.0" standalone="no"?>
<!DOCTYPE svg PUBLIC "-//W3C//DTD SVG 20010904//EN"
 "http://www.w3.org/TR/2001/REC-SVG-20010904/DTD/svg10.dtd">
<svg version="1.0" xmlns="http://www.w3.org/2000/svg"
 width="116.000000pt" height="131.000000pt" viewBox="0 0 116.000000 131.000000"
 preserveAspectRatio="xMidYMid meet">

<g transform="translate(0.000000,131.000000) scale(0.100000,-0.100000)"
fill="#000000" stroke="none">
<path d="M560 1174 c0 -40 4 -54 12 -52 18 6 19 96 1 102 -10 4 -13 -8 -13
-50z"/>
<path d="M290 1145 c0 -11 40 -84 49 -89 21 -13 18 13 -5 52 -22 36 -44 55
-44 37z"/>
<path d="M812 1109 c-15 -26 -20 -45 -14 -51 6 -6 19 7 36 36 30 51 31 56 14
56 -7 0 -24 -19 -36 -41z"/>
<path d="M90 941 c0 -15 84 -60 94 -50 11 10 12 9 -37 37 -41 24 -57 27 -57
13z"/>
<path d="M360 865 l0 -85 -165 0 c-93 0 -165 -4 -165 -9 0 -5 9 -30 20 -55 16
-38 24 -46 45 -46 21 0 29 -8 45 -44 15 -35 24 -45 46 -48 21 -2 30 -11 39
-38 11 -34 14 -35 71 -40 l59 -5 3 -57 3 -58 214 0 215 0 0 60 0 60 58 0 59 0
13 40 c11 34 17 40 41 40 23 0 30 7 45 45 14 38 21 45 45 45 24 0 30 6 47 53
l20 52 -164 3 -164 2 0 28 c0 20 -15 43 -58 85 l-58 57 -157 0 -157 0 0 -85z
m290 10 l0 -54 58 -3 57 -3 2 -195 c1 -147 -2 -197 -11 -205 -8 -6 -84 -9
-194 -7 l-182 3 0 259 0 260 135 0 135 0 0 -55z m65 -5 l29 -30 -32 0 c-29 0
-32 3 -32 30 0 17 1 30 3 30 2 0 16 -13 32 -30z m-357 -147 l-3 -28 -130 -3
c-113 -2 -131 0 -142 15 -30 40 -20 43 133 43 l145 0 -3 -27z m722 22 c0 -2
-5 -16 -12 -30 -11 -25 -11 -25 -145 -25 l-133 0 0 30 0 30 145 0 c80 0 145
-2 145 -5z m-720 -105 l0 -30 -93 0 c-91 0 -94 1 -105 25 -7 14 -12 28 -12 30
0 3 47 5 105 5 l105 0 0 -30z m630 23 c0 -5 -3 -18 -6 -30 -6 -22 -11 -23
-100 -23 l-94 0 0 30 0 30 100 0 c55 0 100 -3 100 -7z m-630 -113 c0 -29 -1
-30 -50 -30 -45 0 -52 3 -60 26 -6 14 -10 27 -10 30 0 2 27 4 60 4 l60 0 0
-30z m539 0 c-10 -28 -15 -30 -60 -30 -48 0 -49 1 -49 30 0 30 0 30 59 30 l60
0 -10 -30z"/>
<path d="M430 734 c0 -11 26 -14 146 -14 112 0 145 3 141 13 -6 19 -287 21
-287 1z"/>
<path d="M430 640 c0 -6 55 -10 145 -10 90 0 145 4 145 10 0 6 -55 10 -145 10
-90 0 -145 -4 -145 -10z"/>
<path d="M470 550 c0 -6 40 -10 100 -10 60 0 100 4 100 10 0 6 -40 10 -100 10
-60 0 -100 -4 -100 -10z"/>
<path d="M998 929 c-37 -19 -45 -29 -32 -42 7 -7 94 44 94 55 0 13 -23 8 -62
-13z"/>
<path d="M128 426 c-33 -18 -51 -46 -31 -46 17 0 93 52 88 61 -8 12 -13 11
-57 -15z"/>
<path d="M962 438 c6 -19 85 -60 92 -49 4 5 -13 21 -37 35 -49 29 -61 32 -55
14z"/>
<path d="M312 241 c-23 -40 -28 -61 -14 -61 11 0 62 87 55 94 -12 12 -20 5
-41 -33z"/>
<path d="M790 274 c0 -18 52 -94 61 -88 6 3 0 22 -14 47 -23 38 -47 59 -47 41z"/>
<path d="M560 165 c0 -41 3 -56 13 -53 16 6 16 100 0 106 -10 3 -13 -12 -13
-53z"/>
</g>
</svg>
