<?xml version="1.0" standalone="no"?>
<!DOCTYPE svg PUBLIC "-//W3C//DTD SVG 20010904//EN"
 "http://www.w3.org/TR/2001/REC-SVG-20010904/DTD/svg10.dtd">
<svg version="1.0" xmlns="http://www.w3.org/2000/svg"
 width="225.000000pt" height="225.000000pt" viewBox="0 0 225.000000 225.000000"
 preserveAspectRatio="xMidYMid meet">

<g transform="translate(0.000000,225.000000) scale(0.100000,-0.100000)"
fill="#000000" stroke="none">
<path d="M1126 1971 l-69 -39 -70 24 c-39 13 -79 24 -89 24 -11 0 -35 -26 -65
-70 -27 -41 -55 -72 -67 -75 -12 -2 -48 -9 -81 -15 -33 -5 -65 -17 -71 -25 -6
-9 -15 -50 -18 -93 l-7 -77 -56 -40 c-87 -62 -89 -68 -52 -158 l31 -76 -31
-67 c-43 -92 -41 -103 27 -159 62 -51 69 -67 71 -163 1 -63 1 -63 39 -79 20
-8 38 -16 39 -17 2 -1 -38 -101 -87 -221 -52 -127 -88 -227 -84 -237 11 -35
35 -37 144 -12 58 13 115 24 126 24 17 0 35 -22 77 -93 64 -108 78 -121 111
-113 20 5 36 37 106 211 46 113 86 205 90 205 3 0 43 -92 89 -205 71 -175 87
-206 107 -211 33 -8 44 3 110 112 36 61 63 94 74 94 10 0 66 -11 125 -24 111
-25 136 -24 149 9 4 13 -89 255 -201 522 -3 8 17 22 51 37 31 14 59 33 63 42
3 9 1 50 -5 92 l-12 75 50 61 c27 33 50 70 50 81 0 12 -20 49 -46 84 l-45 62
16 78 c9 43 13 84 10 92 -3 8 -38 31 -78 51 l-73 36 -19 63 c-31 107 -33 109
-127 109 l-81 0 -63 60 c-34 33 -68 60 -76 60 -7 0 -44 -18 -82 -39z m122
-121 l42 -49 82 -3 82 -3 21 -70 c20 -69 21 -70 80 -102 33 -18 63 -34 68 -35
4 -2 0 -34 -7 -72 -17 -77 -15 -81 40 -155 l34 -43 -46 -54 -46 -53 4 -81 3
-81 -51 -22 c-71 -30 -79 -39 -105 -112 l-23 -64 -72 6 -73 6 -56 -48 c-42
-36 -59 -45 -68 -36 -6 6 -17 11 -24 11 -7 0 -31 11 -53 25 -40 25 -41 25
-100 10 -33 -8 -65 -18 -73 -20 -8 -4 -26 17 -47 56 -39 68 -86 99 -152 99
l-38 0 0 72 0 73 -59 54 -59 54 30 68 31 68 -27 66 c-14 36 -26 67 -26 70 0 2
26 24 59 49 l59 45 7 74 6 74 75 13 75 12 42 62 42 63 69 -23 70 -24 60 34
c34 19 66 35 71 35 6 1 29 -21 53 -49z m-453 -1064 c52 -93 51 -93 146 -68 81
22 119 19 119 -11 0 -18 -132 -337 -139 -337 -4 0 -24 29 -45 65 -55 95 -59
96 -167 73 -50 -11 -92 -18 -95 -16 -4 4 137 358 143 358 1 0 18 -29 38 -64z
m806 -123 c38 -92 67 -169 64 -171 -2 -2 -44 5 -94 16 -107 23 -110 22 -166
-70 -46 -76 -44 -73 -50 -66 -3 3 -35 76 -70 161 l-64 156 47 38 46 38 89 -4
88 -3 16 41 c9 23 18 39 21 36 3 -3 36 -80 73 -172z"/>
<path d="M1040 1759 c-129 -21 -251 -113 -312 -236 -32 -65 -33 -72 -33 -183
0 -111 1 -118 33 -183 131 -265 474 -324 683 -117 98 97 144 238 120 367 -44
237 -257 390 -491 352z m234 -94 c124 -63 199 -185 199 -325 0 -226 -196 -394
-418 -358 -120 19 -222 96 -274 207 -22 48 -26 69 -26 151 0 82 4 103 27 152
42 90 131 167 228 199 14 5 66 7 116 6 77 -2 99 -7 148 -32z"/>
<path d="M1063 1536 l-36 -74 -75 -11 c-41 -6 -78 -14 -83 -17 -20 -12 -6 -42
46 -94 l55 -56 -10 -53 c-24 -127 -9 -141 91 -87 l69 37 63 -35 c103 -58 117
-48 98 67 l-12 71 56 56 c52 52 66 82 46 94 -5 3 -42 11 -83 17 l-75 11 -36
74 c-28 55 -42 74 -57 74 -15 0 -29 -19 -57 -74z m87 -83 c14 -27 32 -49 40
-50 8 -1 32 -4 53 -8 l38 -6 -39 -43 c-39 -42 -40 -44 -31 -91 5 -27 7 -50 5
-53 -3 -2 -20 5 -39 17 -43 26 -73 27 -115 1 -18 -11 -35 -20 -37 -20 -3 0 -2
25 1 56 7 54 6 56 -31 94 l-38 39 39 6 c22 3 46 7 54 8 8 1 26 23 40 50 14 26
27 47 30 47 3 0 16 -21 30 -47z"/>
</g>
</svg>
